<?xml version="1.0" encoding="utf-8"?>
<!-- Generator: Adobe Illustrator 16.0.0, SVG Export Plug-In . SVG Version: 6.00 Build 0)  -->
<!DOCTYPE svg PUBLIC "-//W3C//DTD SVG 1.1//EN" "http://www.w3.org/Graphics/SVG/1.1/DTD/svg11.dtd">
<svg version="1.1" xmlns="http://www.w3.org/2000/svg" xmlns:xlink="http://www.w3.org/1999/xlink" x="0px" y="0px" width="100px"
	 height="100px" viewBox="0 0 100 100" enable-background="new 0 0 100 100" xml:space="preserve">
<g id="Layer_6" display="none">
	<rect display="inline" fill="#00AEFF" width="100" height="100"/>
</g>
<g id="clock" display="none">
	<path display="inline" fill="#00AEFF" d="M50,0C22.386,0,0,22.386,0,50s22.386,50,50,50s50-22.386,50-50S77.614,0,50,0z M50,90.25
		C27.771,90.25,9.75,72.229,9.75,50S27.771,9.75,50,9.75S90.25,27.771,90.25,50S72.229,90.25,50,90.25z"/>
	<polygon display="inline" fill="#00AEFF" points="54,50 46,50 50,10 50,10 	"/>
	<polygon display="inline" fill="#00AEFF" points="48,54 48,46 76.75,50 76.75,50 	"/>
	<circle display="inline" fill="#00AEFF" cx="49.875" cy="50" r="4.5"/>
</g>
<g id="calendar" display="none">
	<path display="inline" fill="#00AEFF" d="M88,14H12C5.373,14,0,19.373,0,26v62c0,6.627,5.373,12,12,12h76c6.627,0,12-5.373,12-12
		V26C100,19.373,94.627,14,88,14z M92,82.953C92,88.502,87.502,93,81.953,93H18.047C12.498,93,8,88.502,8,82.953V41.047
		C8,35.498,12.498,31,18.047,31h63.906C87.502,31,92,35.498,92,41.047V82.953z"/>
	<path display="inline" fill="#00AEFF" d="M79,53.5c0,5.247-4.253,9.5-9.5,9.5l0,0c-5.247,0-9.5-4.253-9.5-9.5l0,0
		c0-5.247,4.253-9.5,9.5-9.5l0,0C74.747,44,79,48.253,79,53.5L79,53.5z"/>
	<path display="inline" fill="#00AEFF" d="M35,15.5c0,4.142-3.358,7.5-7.5,7.5l0,0c-4.142,0-7.5-3.358-7.5-7.5v-8
		C20,3.358,23.358,0,27.5,0l0,0C31.642,0,35,3.358,35,7.5V15.5z"/>
	<path display="inline" fill="#00AEFF" d="M80,15.5c0,4.142-3.357,7.5-7.5,7.5l0,0c-4.143,0-7.5-3.358-7.5-7.5v-8
		C65,3.358,68.357,0,72.5,0l0,0C76.643,0,80,3.358,80,7.5V15.5z"/>
</g>
<g id="lock" display="none">
	<path display="inline" fill="#FFFFFF" d="M78,37H22c-6.627,0-12,5.373-12,12v39c0,6.627,5.373,12,12,12h56c6.627,0,12-5.373,12-12
		V49C90,42.373,84.627,37,78,37z M62,65.188c0,4.409-2.421,8.248-6.002,10.277c0,0.012,0.002,0.023,0.002,0.035v9
		c0,3.037-2.463,5.5-5.5,5.5S45,87.537,45,84.5v-8.532c-4-1.843-7-5.973-7-10.78v-0.375C38,58.289,43.789,53,50.312,53h0.375
		C57.211,53,62,58.289,62,64.812V65.188z"/>
	<path display="inline" fill="#FFFFFF" d="M35,37V25.496C35,16.938,41.938,10,50.496,10h0.008c7.707,0,14.081,5.631,15.277,13h8.206
		C73.721,10.253,63.311,0,50.5,0C37.521,0,27,10.521,27,23.5V37H35z"/>
</g>
<g id="mobile">
	<path fill="#FFFFFF" d="M79,5.306C79,2.375,76.624,0,73.693,0H23.307C20.376,0,18,2.375,18,5.306v89.387
		c0,2.931,2.376,5.307,5.307,5.307h50.387C76.624,100,79,97.624,79,94.693V5.306z M58,5.071C58,5.584,57.585,6,57.072,6H38.928
		C38.416,6,38,5.584,38,5.071V4.929C38,4.416,38.416,4,38.928,4h18.145C57.585,4,58,4.416,58,4.929V5.071z M48.245,93.683
		c-2.638,0-4.776-2.138-4.776-4.775s2.138-4.776,4.776-4.776c2.637,0,4.775,2.139,4.775,4.776S50.882,93.683,48.245,93.683z M73,78
		H24V10h49V78z"/>
</g>
<g id="menu" display="none">
	<path display="inline" fill="#333333" d="M78,32.125C78,33.713,76.713,35,75.125,35h-51.25C22.287,35,21,33.713,21,32.125v-0.25
		C21,30.287,22.287,29,23.875,29h51.25C76.713,29,78,30.287,78,31.875V32.125z"/>
	<path display="inline" fill="#333333" d="M78,44.125C78,45.713,76.713,47,75.125,47h-51.25C22.287,47,21,45.713,21,44.125v-0.25
		C21,42.287,22.287,41,23.875,41h51.25C76.713,41,78,42.287,78,43.875V44.125z"/>
	<path display="inline" fill="#333333" d="M78,56.125C78,57.713,76.713,59,75.125,59h-51.25C22.287,59,21,57.713,21,56.125v-0.25
		C21,54.287,22.287,53,23.875,53h51.25C76.713,53,78,54.287,78,55.875V56.125z"/>
	<path display="inline" fill="#333333" d="M78,68.125C78,69.713,76.713,71,75.125,71h-51.25C22.287,71,21,69.713,21,68.125v-0.25
		C21,66.287,22.287,65,23.875,65h51.25C76.713,65,78,66.287,78,67.875V68.125z"/>
</g>
</svg>
