<?xml version="1.0" encoding="utf-8"?>
<!-- Generator: Adobe Illustrator 16.0.0, SVG Export Plug-In . SVG Version: 6.00 Build 0)  -->
<!DOCTYPE svg PUBLIC "-//W3C//DTD SVG 1.1//EN" "http://www.w3.org/Graphics/SVG/1.1/DTD/svg11.dtd">
<svg version="1.1" xmlns="http://www.w3.org/2000/svg" xmlns:xlink="http://www.w3.org/1999/xlink" x="0px" y="0px" width="100px"
	 height="100px" viewBox="0 0 100 100" enable-background="new 0 0 100 100" xml:space="preserve">
<g id="clock">
	<path fill="#00AEFF" d="M50,0C22.386,0,0,22.386,0,50s22.386,50,50,50s50-22.386,50-50S77.614,0,50,0z M50,90.25
		C27.771,90.25,9.75,72.229,9.75,50S27.771,9.75,50,9.75S90.25,27.771,90.25,50S72.229,90.25,50,90.25z"/>
	<polygon fill="#00AEFF" points="54,50 46,50 50,10 50,10 	"/>
	<polygon fill="#00AEFF" points="48,54 48,46 76.75,50 76.75,50 	"/>
	<circle fill="#00AEFF" cx="49.875" cy="50" r="4.5"/>
</g>
<g id="calendar" display="none">
	<path display="inline" fill="#00AEFF" d="M88,14H12C5.373,14,0,19.373,0,26v62c0,6.627,5.373,12,12,12h76c6.627,0,12-5.373,12-12
		V26C100,19.373,94.627,14,88,14z M92,82.953C92,88.502,87.502,93,81.953,93H18.047C12.498,93,8,88.502,8,82.953V41.047
		C8,35.498,12.498,31,18.047,31h63.906C87.502,31,92,35.498,92,41.047V82.953z"/>
	<path display="inline" fill="#00AEFF" d="M79,53.5c0,5.247-4.253,9.5-9.5,9.5l0,0c-5.247,0-9.5-4.253-9.5-9.5l0,0
		c0-5.247,4.253-9.5,9.5-9.5l0,0C74.747,44,79,48.253,79,53.5L79,53.5z"/>
	<path display="inline" fill="#00AEFF" d="M35,15.5c0,4.142-3.358,7.5-7.5,7.5l0,0c-4.142,0-7.5-3.358-7.5-7.5v-8
		C20,3.358,23.358,0,27.5,0l0,0C31.642,0,35,3.358,35,7.5V15.5z"/>
	<path display="inline" fill="#00AEFF" d="M80,15.5c0,4.142-3.357,7.5-7.5,7.5l0,0c-4.143,0-7.5-3.358-7.5-7.5v-8
		C65,3.358,68.357,0,72.5,0l0,0C76.643,0,80,3.358,80,7.5V15.5z"/>
</g>
</svg>
