<?xml version="1.0" encoding="utf-8"?>
<!-- Generator: Adobe Illustrator 16.0.0, SVG Export Plug-In . SVG Version: 6.00 Build 0)  -->
<!DOCTYPE svg PUBLIC "-//W3C//DTD SVG 1.1//EN" "http://www.w3.org/Graphics/SVG/1.1/DTD/svg11.dtd">
<svg version="1.1" id="Layer_1" xmlns="http://www.w3.org/2000/svg" xmlns:xlink="http://www.w3.org/1999/xlink" x="0px" y="0px"
	 width="100px" height="100px" viewBox="0 0 100 100" enable-background="new 0 0 100 100" xml:space="preserve">
<path fill="#FFFFFF" d="M78,37H22c-6.627,0-12,5.373-12,12v39c0,6.627,5.373,12,12,12h56c6.627,0,12-5.373,12-12V49
	C90,42.373,84.627,37,78,37z M62,65.188c0,4.409-2.421,8.248-6.002,10.277c0,0.012,0.002,0.023,0.002,0.035v9
	c0,3.037-2.463,5.5-5.5,5.5S45,87.537,45,84.5v-8.532c-4-1.843-7-5.973-7-10.78v-0.375C38,58.289,43.789,53,50.312,53h0.375
	C57.211,53,62,58.289,62,64.812V65.188z"/>
<path fill="#FFFFFF" d="M35,37V25.496C35,16.938,41.938,10,50.496,10h0.008c7.707,0,14.081,5.631,15.277,13h8.206
	C73.721,10.253,63.311,0,50.5,0C37.521,0,27,10.521,27,23.5V37H35z"/>
</svg>
