<?xml version="1.0" encoding="utf-8"?>
<!-- Generator: Adobe Illustrator 16.0.0, SVG Export Plug-In . SVG Version: 6.00 Build 0)  -->
<!DOCTYPE svg PUBLIC "-//W3C//DTD SVG 1.1//EN" "http://www.w3.org/Graphics/SVG/1.1/DTD/svg11.dtd">
<svg version="1.1" id="Layer_1" xmlns="http://www.w3.org/2000/svg" xmlns:xlink="http://www.w3.org/1999/xlink" x="0px" y="0px"
	 width="100px" height="100px" viewBox="0 0 100 100" enable-background="new 0 0 100 100" xml:space="preserve">
<path fill="#666666" d="M78.315,46c-0.688-4.907-2.614-9.416-5.463-13.195l5.432-5.432l-5.657-5.657l-5.432,5.432
	c-3.779-2.848-8.287-4.776-13.195-5.463V14h-8v7.685c-4.907,0.687-9.416,2.615-13.195,5.463l-5.432-5.432l-5.657,5.657l5.432,5.432
	c-2.848,3.779-4.776,8.288-5.463,13.195H14v8h7.685c0.687,4.908,2.615,9.416,5.463,13.195l-5.432,5.432l5.657,5.657l5.432-5.432
	c3.779,2.849,8.288,4.775,13.195,5.463V86h8v-7.685c4.908-0.688,9.416-2.614,13.195-5.463l5.432,5.432l5.657-5.657l-5.432-5.432
	c2.849-3.779,4.775-8.287,5.463-13.195H86v-8H78.315z M50,61.799c-6.517,0-11.799-5.282-11.799-11.799S43.483,38.201,50,38.201
	S61.799,43.483,61.799,50S56.517,61.799,50,61.799z"/>
</svg>
