<?xml version="1.0" encoding="utf-8"?>
<!-- Generator: Adobe Illustrator 16.0.0, SVG Export Plug-In . SVG Version: 6.00 Build 0)  -->
<!DOCTYPE svg PUBLIC "-//W3C//DTD SVG 1.1//EN" "http://www.w3.org/Graphics/SVG/1.1/DTD/svg11.dtd">
<svg version="1.1" id="Layer_1" xmlns="http://www.w3.org/2000/svg" xmlns:xlink="http://www.w3.org/1999/xlink" x="0px" y="0px"
	 width="100px" height="100px" viewBox="0 0 100 100" enable-background="new 0 0 100 100" xml:space="preserve">
<path fill="#00AEFF" d="M63.091,0.219C55.036,2.25,46.537,9.961,45.977,15.331c-0.591,5.644,3.314,10.264,3.437,10.709
	c0.168,0.625,0.351,1.202,0.535,1.765c0.617,2.699,0.067,4.823-1.146,8.404c-4.502,13.243-8.043,24.527-8.629,26.285
	c-0.842,2.545-2.834,4.979-4.583,5.403c-1.73,0.491-5.094,1.43-7.478,3.696c-2.38,2.264-5.597,11.449-3.907,19.208
	c0.105,0.456,0.554,0.783,0.724,0.481c0,0,6.754-10.555,7.724-11.399c0.435-0.376,4.807-0.872,7.068,0.672
	c2.023,1.375,4.299,5.656,4.103,6.154l-7.301,11.773c-0.133,0.275-0.184,0.573,0.405,0.551c0.469-0.015,8.588-1.721,13.464-6.74
	c4.876-5.021,6.062-7.729,1.108-15.193c-0.917-1.554-1.505-6.681-0.614-9.211c0.623-1.77,4.345-13.251,8.655-25.59
	c1.086-3.132,1.894-6.104,4.228-6.895c8.378-0.987,11.57-5.507,13.118-8.691c3.433-7.014,1.681-16.526,1.521-17.037
	c-0.158-0.517-0.268-0.631-0.69-0.189c0,0-7.563,11.47-8.205,12.263c-0.556,0.691-5.801,0.668-8.119-0.718
	c-2.6-1.557-4.78-6.481-4.469-7.05c2.015-3.687,6.807-13.009,6.807-13.009C64.066,0.319,63.503,0.111,63.091,0.219z"/>
</svg>
